# xmcd
#
# Track frame offsets: 
#        150
#        13196
#        18262
#        37063
#        54797
#        73619
#        79232
#        99372
#        116250
#        134128
#        153853
#        157617
#        176849
#        195993
#        217043
#        237766
#        250994
#
# Disc length: 3563 seconds
#
# Revision: 0
# Processed by: cddbd v1.5.2PL0 Copyright (c) Steve Scherf et al.
# Submitted via: ExactAudioCopy v0.99pb5
#
DISCID=d80de911
DTITLE=Little Brother - Separate But Equal
DYEAR=2008
DGENRE=Rap
TTITLE0=Knock Knock
TTITLE1=Don't Trust 'Em (Skit)
TTITLE2=Cross That Line feat. Big Treal
TTITLE3=Let It Go feat. Mos Def
TTITLE4=Can't Let Her
TTITLE5=The Singing Bums (Skit)
TTITLE6=Rollin' Out feat. Supastition
TTITLE7=Macaroni
TTITLE8=Boondock Saints feat. Chaundon and L.E.G.A.C.Y. 
TTITLE9=Home feat. Joe Scudda
TTITLE10=Horror Movie (Skit)
TTITLE11=I Need You feat. Darien Brockington
TTITLE12=Candy feat. Bun B and Darien Brockington
TTITLE13=Speed Racin' feat. Chaundon and Skyzoo
TTITLE14=Deeper feat. Dynas
TTITLE15=Playin' To Lose
TTITLE16=Passionflower
EXTD=
EXTT0=
EXTT1=
EXTT2=
EXTT3=
EXTT4=
EXTT5=
EXTT6=
EXTT7=
EXTT8=
EXTT9=
EXTT10=
EXTT11=
EXTT12=
EXTT13=
EXTT14=
EXTT15=
EXTT16=
PLAYORDER=
